<svg xmlns="http://www.w3.org/2000/svg" xmlns:xlink="http://www.w3.org/1999/xlink" width="500" zoomAndPan="magnify" viewBox="0 0 375 374.999991" height="500" preserveAspectRatio="xMidYMid meet" version="1.0"><defs><g/><clipPath id="f04c3b4777"><path d="M 46.113281 46.113281 L 328.886719 46.113281 L 328.886719 328.886719 L 46.113281 328.886719 Z M 46.113281 46.113281 " clip-rule="nonzero"/></clipPath><clipPath id="1c4f6be555"><path d="M 187.5 46.113281 C 109.414062 46.113281 46.113281 109.414062 46.113281 187.5 C 46.113281 265.585938 109.414062 328.886719 187.5 328.886719 C 265.585938 328.886719 328.886719 265.585938 328.886719 187.5 C 328.886719 109.414062 265.585938 46.113281 187.5 46.113281 Z M 187.5 46.113281 " clip-rule="nonzero"/></clipPath><clipPath id="3b34d52227"><path d="M 0.113281 0.113281 L 282.886719 0.113281 L 282.886719 282.886719 L 0.113281 282.886719 Z M 0.113281 0.113281 " clip-rule="nonzero"/></clipPath><clipPath id="168f94772a"><path d="M 141.5 0.113281 C 63.414062 0.113281 0.113281 63.414062 0.113281 141.5 C 0.113281 219.585938 63.414062 282.886719 141.5 282.886719 C 219.585938 282.886719 282.886719 219.585938 282.886719 141.5 C 282.886719 63.414062 219.585938 0.113281 141.5 0.113281 Z M 141.5 0.113281 " clip-rule="nonzero"/></clipPath><clipPath id="6a42b3bdd1"><rect x="0" width="283" y="0" height="283"/></clipPath><clipPath id="b293647afb"><path d="M 46.113281 46.113281 L 328.863281 46.113281 L 328.863281 328.863281 L 46.113281 328.863281 Z M 46.113281 46.113281 " clip-rule="nonzero"/></clipPath><clipPath id="e233749863"><path d="M 187.5 46.113281 C 109.414062 46.113281 46.113281 109.414062 46.113281 187.5 C 46.113281 265.585938 109.414062 328.886719 187.5 328.886719 C 265.585938 328.886719 328.886719 265.585938 328.886719 187.5 C 328.886719 109.414062 265.585938 46.113281 187.5 46.113281 Z M 187.5 46.113281 " clip-rule="nonzero"/></clipPath><clipPath id="0b958265ca"><path d="M 53.914062 53.285156 L 321.664062 53.285156 L 321.664062 321.035156 L 53.914062 321.035156 Z M 53.914062 53.285156 " clip-rule="nonzero"/></clipPath><clipPath id="7137067b1d"><path d="M 134 0.332031 L 268.664062 0.332031 L 268.664062 203 L 134 203 Z M 134 0.332031 " clip-rule="nonzero"/></clipPath><clipPath id="492308c048"><path d="M 0.914062 0.332031 L 135 0.332031 L 135 203 L 0.914062 203 Z M 0.914062 0.332031 " clip-rule="nonzero"/></clipPath><clipPath id="9c4ddaa5ef"><path d="M 19 157 L 250 157 L 250 268.035156 L 19 268.035156 Z M 19 157 " clip-rule="nonzero"/></clipPath><clipPath id="05fd9129bf"><rect x="0" width="269" y="0" height="269"/></clipPath><clipPath id="e3fe3f69f9"><path d="M 106.046875 106.046875 L 268.953125 106.046875 L 268.953125 268.953125 L 106.046875 268.953125 Z M 106.046875 106.046875 " clip-rule="nonzero"/></clipPath><clipPath id="8fa4de72b3"><path d="M 187.5 106.046875 C 142.515625 106.046875 106.046875 142.515625 106.046875 187.5 C 106.046875 232.484375 142.515625 268.953125 187.5 268.953125 C 232.484375 268.953125 268.953125 232.484375 268.953125 187.5 C 268.953125 142.515625 232.484375 106.046875 187.5 106.046875 Z M 187.5 106.046875 " clip-rule="nonzero"/></clipPath><clipPath id="5041f5e2e0"><path d="M 0.046875 0.046875 L 162.953125 0.046875 L 162.953125 162.953125 L 0.046875 162.953125 Z M 0.046875 0.046875 " clip-rule="nonzero"/></clipPath><clipPath id="0cb3e95dfe"><path d="M 81.5 0.046875 C 36.515625 0.046875 0.046875 36.515625 0.046875 81.5 C 0.046875 126.484375 36.515625 162.953125 81.5 162.953125 C 126.484375 162.953125 162.953125 126.484375 162.953125 81.5 C 162.953125 36.515625 126.484375 0.046875 81.5 0.046875 Z M 81.5 0.046875 " clip-rule="nonzero"/></clipPath><clipPath id="b053fe55ff"><rect x="0" width="163" y="0" height="163"/></clipPath><clipPath id="9c72051165"><path d="M 106.046875 106.046875 L 268.796875 106.046875 L 268.796875 268.796875 L 106.046875 268.796875 Z M 106.046875 106.046875 " clip-rule="nonzero"/></clipPath><clipPath id="d99f57b57f"><path d="M 187.5 106.046875 C 142.515625 106.046875 106.046875 142.515625 106.046875 187.5 C 106.046875 232.484375 142.515625 268.949219 187.5 268.949219 C 232.484375 268.949219 268.949219 232.484375 268.949219 187.5 C 268.949219 142.515625 232.484375 106.046875 187.5 106.046875 Z M 187.5 106.046875 " clip-rule="nonzero"/></clipPath><clipPath id="63204ea5a3"><path d="M 81 217 L 94 217 L 94 234 L 81 234 Z M 81 217 " clip-rule="nonzero"/></clipPath><clipPath id="4167fb2bf5"><path d="M 77.277344 219.625 L 89.152344 215.710938 L 93.757812 229.667969 L 81.882812 233.585938 Z M 77.277344 219.625 " clip-rule="nonzero"/></clipPath><clipPath id="42769fadfa"><path d="M 83.214844 217.667969 L 93.753906 229.660156 L 81.878906 233.574219 Z M 83.214844 217.667969 " clip-rule="nonzero"/></clipPath><clipPath id="1fc340b566"><path d="M 0.839844 0.441406 L 12.839844 0.441406 L 12.839844 16.761719 L 0.839844 16.761719 Z M 0.839844 0.441406 " clip-rule="nonzero"/></clipPath><clipPath id="f96a4849f9"><path d="M -3.722656 2.625 L 8.152344 -1.289062 L 12.757812 12.667969 L 0.882812 16.585938 Z M -3.722656 2.625 " clip-rule="nonzero"/></clipPath><clipPath id="feede7935e"><path d="M 2.214844 0.667969 L 12.753906 12.660156 L 0.878906 16.574219 Z M 2.214844 0.667969 " clip-rule="nonzero"/></clipPath><clipPath id="1f8b1de14f"><rect x="0" width="13" y="0" height="17"/></clipPath><clipPath id="64af416ce4"><path d="M 281 218 L 293 218 L 293 231 L 281 231 Z M 281 218 " clip-rule="nonzero"/></clipPath><clipPath id="0d867139ed"><path d="M 285.554688 215.710938 L 296.964844 220.875 L 292.453125 230.839844 L 281.046875 225.679688 Z M 285.554688 215.710938 " clip-rule="nonzero"/></clipPath><clipPath id="1f8f0f3ea4"><path d="M 291.25 218.289062 L 292.4375 230.832031 L 281.046875 225.679688 Z M 291.25 218.289062 " clip-rule="nonzero"/></clipPath><clipPath id="7aa7504aee"><path d="M 0.0390625 0.160156 L 11.558594 0.160156 L 11.558594 12.878906 L 0.0390625 12.878906 Z M 0.0390625 0.160156 " clip-rule="nonzero"/></clipPath><clipPath id="7743cabc57"><path d="M 4.554688 -2.289062 L 15.964844 2.875 L 11.453125 12.839844 L 0.046875 7.679688 Z M 4.554688 -2.289062 " clip-rule="nonzero"/></clipPath><clipPath id="2dc20a4aa0"><path d="M 10.25 0.289062 L 11.4375 12.832031 L 0.046875 7.679688 Z M 10.25 0.289062 " clip-rule="nonzero"/></clipPath><clipPath id="166576c7e0"><rect x="0" width="12" y="0" height="13"/></clipPath><clipPath id="66144a3bb4"><path d="M 114.949219 123.421875 L 260.449219 123.421875 L 260.449219 256 L 114.949219 256 Z M 114.949219 123.421875 " clip-rule="nonzero"/></clipPath><clipPath id="b69fc1fa4f"><path d="M 135.328125 129.371094 L 239.578125 129.371094 L 239.578125 238.871094 L 135.328125 238.871094 Z M 135.328125 129.371094 " clip-rule="nonzero"/></clipPath></defs><g clip-path="url(#f04c3b4777)"><g clip-path="url(#1c4f6be555)"><g transform="matrix(1, 0, 0, 1, 46, 46)"><g clip-path="url(#6a42b3bdd1)"><g clip-path="url(#3b34d52227)"><g clip-path="url(#168f94772a)"><path fill="#ffffff" d="M 0.113281 0.113281 L 282.886719 0.113281 L 282.886719 282.886719 L 0.113281 282.886719 Z M 0.113281 0.113281 " fill-opacity="1" fill-rule="nonzero"/></g></g></g></g></g></g><g clip-path="url(#b293647afb)"><g clip-path="url(#e233749863)"><path stroke-linecap="butt" transform="matrix(0.75, 0, 0, 0.75, 46.113196, 46.113191)" fill="none" stroke-linejoin="miter" d="M 188.515751 0.000119837 C 84.401161 0.000119837 0.000113837 84.401167 0.000113837 188.515757 C 0.000113837 292.630347 84.401161 377.031395 188.515751 377.031395 C 292.630341 377.031395 377.031389 292.630347 377.031389 188.515757 C 377.031389 84.401167 292.630341 0.000119837 188.515751 0.000119837 Z M 188.515751 0.000119837 " stroke="#000000" stroke-width="10" stroke-opacity="1" stroke-miterlimit="4"/></g></g><g clip-path="url(#0b958265ca)"><g transform="matrix(1, 0, 0, 1, 53, 53)"><g clip-path="url(#05fd9129bf)"><g clip-path="url(#7137067b1d)"><path fill="#960013" d="M 249.984375 202.488281 L 174.273438 157.867188 C 174.894531 156.839844 175.476562 155.785156 176.015625 154.703125 C 179.101562 148.523438 180.84375 141.558594 180.84375 134.183594 C 180.84375 108.757812 160.234375 88.148438 134.8125 88.148438 C 134.75 88.148438 134.691406 88.152344 134.628906 88.152344 C 134.5 88.15625 134.375 88.164062 134.246094 88.164062 L 134.246094 0.292969 C 134.375 0.292969 134.5 0.285156 134.628906 0.285156 C 134.691406 0.285156 134.75 0.285156 134.8125 0.285156 C 208.761719 0.285156 268.710938 60.230469 268.710938 134.183594 C 268.710938 155.550781 263.695312 175.746094 254.792969 193.667969 C 253.300781 196.671875 251.695312 199.613281 249.984375 202.488281 Z M 249.984375 202.488281 " fill-opacity="1" fill-rule="nonzero"/></g><g clip-path="url(#492308c048)"><path fill="#960013" d="M 88.777344 134.183594 C 88.777344 141.933594 90.703125 149.234375 94.089844 155.644531 C 94.425781 156.285156 94.785156 156.917969 95.15625 157.539062 L 19.4375 202.160156 C 18.316406 200.257812 17.238281 198.328125 16.210938 196.371094 C 6.445312 177.785156 0.914062 156.632812 0.914062 134.183594 C 0.914062 60.421875 60.554688 0.597656 134.246094 0.292969 L 134.246094 88.164062 C 109.082031 88.46875 88.777344 108.949219 88.777344 134.183594 Z M 88.777344 134.183594 " fill-opacity="1" fill-rule="nonzero"/></g><g clip-path="url(#9c4ddaa5ef)"><path fill="#ffffff" d="M 134.8125 180.214844 C 151.570312 180.214844 166.222656 171.253906 174.273438 157.867188 L 249.984375 202.488281 C 226.648438 241.757812 183.808594 268.082031 134.8125 268.082031 C 85.679688 268.082031 42.734375 241.613281 19.4375 202.160156 L 95.15625 157.539062 C 103.164062 171.109375 117.917969 180.214844 134.8125 180.214844 Z M 134.8125 180.214844 " fill-opacity="1" fill-rule="nonzero"/></g></g></g></g><g clip-path="url(#e3fe3f69f9)"><g clip-path="url(#8fa4de72b3)"><g transform="matrix(1, 0, 0, 1, 106, 106)"><g clip-path="url(#b053fe55ff)"><g clip-path="url(#5041f5e2e0)"><g clip-path="url(#0cb3e95dfe)"><path fill="#ffffff" d="M 0.046875 0.046875 L 162.953125 0.046875 L 162.953125 162.953125 L 0.046875 162.953125 Z M 0.046875 0.046875 " fill-opacity="1" fill-rule="nonzero"/></g></g></g></g></g></g><g clip-path="url(#9c72051165)"><g clip-path="url(#d99f57b57f)"><path stroke-linecap="butt" transform="matrix(0.75, 0, 0, 0.75, 106.048805, 106.0488)" fill="none" stroke-linejoin="miter" d="M 108.601601 -0.00256698 C 48.62243 -0.00256698 -0.00257298 48.622436 -0.00257298 108.601607 C -0.00257298 168.580777 48.62243 217.200572 108.601601 217.200572 C 168.580771 217.200572 217.200566 168.580777 217.200566 108.601607 C 217.200566 48.622436 168.580771 -0.00256698 108.601601 -0.00256698 Z M 108.601601 -0.00256698 " stroke="#000000" stroke-width="10" stroke-opacity="1" stroke-miterlimit="4"/></g></g><g clip-path="url(#63204ea5a3)"><g clip-path="url(#4167fb2bf5)"><g clip-path="url(#42769fadfa)"><g transform="matrix(1, 0, 0, 1, 81, 217)"><g clip-path="url(#1f8b1de14f)"><g clip-path="url(#1fc340b566)"><g clip-path="url(#f96a4849f9)"><g clip-path="url(#feede7935e)"><path fill="#000000" d="M -3.722656 2.625 L 8.152344 -1.289062 L 12.757812 12.667969 L 0.882812 16.585938 Z M -3.722656 2.625 " fill-opacity="1" fill-rule="nonzero"/></g></g></g></g></g></g></g></g><g clip-path="url(#64af416ce4)"><g clip-path="url(#0d867139ed)"><g clip-path="url(#1f8f0f3ea4)"><g transform="matrix(1, 0, 0, 1, 281, 218)"><g clip-path="url(#166576c7e0)"><g clip-path="url(#7aa7504aee)"><g clip-path="url(#7743cabc57)"><g clip-path="url(#2dc20a4aa0)"><path fill="#000000" d="M 4.554688 -2.289062 L 15.964844 2.875 L 11.453125 12.839844 L 0.046875 7.679688 Z M 4.554688 -2.289062 " fill-opacity="1" fill-rule="nonzero"/></g></g></g></g></g></g></g></g><g clip-path="url(#66144a3bb4)"><path fill="#000000" d="M 259.277344 154.660156 C 258.894531 154.5 220.882812 138.507812 215.992188 124.128906 L 215.753906 123.425781 L 159.4375 123.425781 L 159.199219 124.128906 C 154.304688 138.507812 116.296875 154.5 115.910156 154.660156 L 114.949219 155.058594 L 115.355469 156.019531 C 115.40625 156.132812 119.59375 166 125.339844 178.9375 C 125.164062 179.09375 125.003906 179.261719 124.847656 179.4375 C 124.695312 179.613281 124.554688 179.796875 124.421875 179.992188 C 124.292969 180.1875 124.175781 180.386719 124.070312 180.59375 C 123.964844 180.804688 123.871094 181.019531 123.792969 181.238281 C 123.710938 181.457031 123.648438 181.679688 123.59375 181.910156 C 123.542969 182.136719 123.503906 182.367188 123.484375 182.597656 C 123.460938 182.832031 123.449219 183.066406 123.457031 183.296875 C 123.460938 183.53125 123.480469 183.765625 123.515625 183.996094 C 123.550781 184.226562 123.597656 184.453125 123.660156 184.679688 C 123.722656 184.90625 123.796875 185.125 123.886719 185.339844 C 123.976562 185.558594 124.078125 185.765625 124.195312 185.96875 C 124.308594 186.171875 124.4375 186.367188 124.574219 186.554688 C 124.714844 186.742188 124.867188 186.921875 125.027344 187.089844 C 125.1875 187.257812 125.359375 187.417969 125.539062 187.566406 C 125.722656 187.714844 125.910156 187.847656 126.109375 187.972656 C 126.304688 188.097656 126.511719 188.210938 126.722656 188.308594 C 126.933594 188.410156 127.148438 188.496094 127.371094 188.566406 C 127.59375 188.640625 127.820312 188.699219 128.046875 188.742188 C 128.277344 188.789062 128.507812 188.816406 128.742188 188.832031 C 128.976562 188.851562 129.207031 188.851562 129.441406 188.839844 C 129.675781 188.828125 129.90625 188.800781 130.136719 188.757812 C 130.367188 188.71875 130.59375 188.664062 130.816406 188.59375 C 131.039062 188.523438 131.257812 188.441406 131.46875 188.34375 C 131.683594 188.25 131.890625 188.140625 132.089844 188.019531 C 132.289062 187.898438 132.480469 187.765625 132.664062 187.621094 C 132.847656 187.472656 133.019531 187.320312 133.183594 187.152344 C 133.347656 186.984375 133.5 186.808594 133.644531 186.625 C 133.785156 186.4375 133.914062 186.246094 134.035156 186.042969 C 134.152344 185.84375 134.257812 185.636719 134.351562 185.421875 C 134.441406 185.207031 134.523438 184.988281 134.585938 184.761719 C 134.652344 184.539062 134.703125 184.3125 134.742188 184.082031 C 134.78125 183.851562 134.804688 183.617188 134.8125 183.386719 C 134.820312 183.152344 134.816406 182.917969 134.796875 182.6875 C 134.777344 182.453125 134.742188 182.222656 134.695312 181.992188 C 134.644531 181.765625 134.582031 181.539062 134.507812 181.320312 C 134.433594 181.097656 134.34375 180.882812 134.242188 180.671875 C 134.136719 180.464844 134.023438 180.261719 133.894531 180.066406 C 133.769531 179.871094 133.628906 179.683594 133.476562 179.503906 C 133.328125 179.324219 133.167969 179.15625 132.996094 178.996094 C 132.824219 178.839844 132.644531 178.691406 132.453125 178.554688 C 132.265625 178.417969 132.066406 178.292969 131.863281 178.183594 C 131.65625 178.070312 131.445312 177.972656 131.230469 177.886719 C 131.011719 177.796875 130.789062 177.726562 130.5625 177.667969 C 130.335938 177.609375 130.109375 177.5625 129.878906 177.535156 C 129.644531 177.503906 129.414062 177.488281 129.179688 177.484375 C 128.945312 177.484375 128.714844 177.496094 128.480469 177.523438 C 128.25 177.550781 128.019531 177.589844 127.792969 177.644531 C 127.566406 177.703125 127.34375 177.769531 127.125 177.851562 C 122.460938 167.351562 118.84375 158.910156 117.664062 156.160156 C 123.738281 153.542969 155.289062 139.378906 160.894531 125.5 L 214.289062 125.5 C 219.894531 139.378906 251.441406 153.542969 257.515625 156.160156 C 254.054688 164.269531 229.425781 221.589844 218.40625 237.933594 C 213.589844 245.082031 206.96875 249.867188 198.730469 252.160156 C 192.554688 253.882812 187.730469 253.472656 187.6875 253.46875 L 187.589844 253.460938 L 187.496094 253.46875 C 187.449219 253.472656 182.628906 253.882812 176.449219 252.160156 C 168.210938 249.867188 161.59375 245.082031 156.773438 237.933594 C 156.21875 237.105469 155.613281 236.15625 154.960938 235.082031 C 155.136719 234.929688 155.300781 234.765625 155.457031 234.589844 C 155.613281 234.414062 155.753906 234.230469 155.886719 234.039062 C 156.019531 233.847656 156.140625 233.648438 156.246094 233.441406 C 156.355469 233.234375 156.449219 233.019531 156.53125 232.800781 C 156.613281 232.582031 156.679688 232.359375 156.734375 232.132812 C 156.789062 231.90625 156.828125 231.675781 156.851562 231.445312 C 156.878906 231.214844 156.890625 230.980469 156.886719 230.75 C 156.882812 230.515625 156.867188 230.28125 156.832031 230.050781 C 156.800781 229.820312 156.757812 229.59375 156.695312 229.367188 C 156.636719 229.140625 156.5625 228.921875 156.476562 228.703125 C 156.386719 228.488281 156.289062 228.277344 156.175781 228.074219 C 156.0625 227.871094 155.9375 227.671875 155.796875 227.484375 C 155.660156 227.296875 155.511719 227.117188 155.351562 226.949219 C 155.195312 226.777344 155.023438 226.617188 154.84375 226.46875 C 154.664062 226.320312 154.476562 226.179688 154.28125 226.054688 C 154.085938 225.929688 153.882812 225.816406 153.671875 225.714844 C 153.460938 225.613281 153.246094 225.527344 153.023438 225.453125 C 152.804688 225.375 152.578125 225.316406 152.351562 225.269531 C 152.121094 225.222656 151.890625 225.191406 151.660156 225.171875 C 151.425781 225.152344 151.195312 225.148438 150.960938 225.160156 C 150.726562 225.171875 150.496094 225.195312 150.265625 225.234375 C 150.035156 225.273438 149.808594 225.328125 149.585938 225.394531 C 149.363281 225.460938 149.144531 225.542969 148.929688 225.636719 C 148.71875 225.730469 148.511719 225.835938 148.308594 225.957031 C 148.109375 226.074219 147.917969 226.207031 147.734375 226.351562 C 147.550781 226.492188 147.375 226.648438 147.210938 226.8125 C 147.046875 226.976562 146.890625 227.152344 146.746094 227.335938 C 146.605469 227.519531 146.472656 227.710938 146.351562 227.910156 C 146.230469 228.109375 146.125 228.316406 146.03125 228.53125 C 145.9375 228.746094 145.855469 228.964844 145.789062 229.1875 C 145.71875 229.410156 145.667969 229.636719 145.628906 229.867188 C 145.589844 230.097656 145.5625 230.328125 145.550781 230.558594 C 145.542969 230.792969 145.542969 231.027344 145.5625 231.257812 C 145.582031 231.492188 145.613281 231.722656 145.660156 231.949219 C 145.703125 232.179688 145.765625 232.402344 145.839844 232.625 C 145.914062 232.847656 146 233.0625 146.101562 233.273438 C 146.203125 233.484375 146.316406 233.6875 146.441406 233.882812 C 146.566406 234.078125 146.703125 234.265625 146.851562 234.445312 C 147.003906 234.625 147.160156 234.796875 147.332031 234.957031 C 147.5 235.117188 147.679688 235.265625 147.867188 235.402344 C 148.058594 235.539062 148.253906 235.664062 148.457031 235.777344 C 148.660156 235.890625 148.871094 235.992188 149.085938 236.082031 C 149.304688 236.167969 149.523438 236.242188 149.75 236.300781 C 149.972656 236.363281 150.203125 236.410156 150.433594 236.441406 C 150.664062 236.472656 150.894531 236.492188 151.128906 236.496094 C 151.363281 236.5 151.59375 236.488281 151.828125 236.460938 C 152.058594 236.4375 152.289062 236.398438 152.515625 236.34375 C 152.742188 236.292969 152.964844 236.222656 153.183594 236.144531 C 153.851562 237.25 154.480469 238.230469 155.058594 239.089844 C 161.433594 248.546875 169.953125 252.515625 175.976562 254.175781 C 182.09375 255.867188 186.847656 255.597656 187.589844 255.539062 C 187.804688 255.554688 188.351562 255.589844 189.167969 255.589844 C 191.1875 255.589844 194.847656 255.378906 199.203125 254.175781 C 205.230469 252.515625 213.75 248.546875 220.125 239.089844 C 232.042969 221.410156 258.703125 158.679688 259.832031 156.019531 L 260.238281 155.058594 Z M 259.277344 154.660156 " fill-opacity="1" fill-rule="nonzero"/></g><path fill="#000000" d="M 194.394531 132.707031 L 180.542969 132.707031 C 180.0625 132.707031 179.675781 133.09375 179.675781 133.574219 L 179.675781 141.8125 C 179.675781 142.289062 180.0625 142.679688 180.542969 142.679688 L 194.394531 142.679688 C 194.875 142.679688 195.261719 142.289062 195.261719 141.8125 L 195.261719 133.574219 C 195.261719 133.09375 194.875 132.707031 194.394531 132.707031 Z M 194.394531 132.707031 " fill-opacity="1" fill-rule="nonzero"/><path fill="#000000" d="M 155.476562 163.75 L 141.628906 163.75 C 141.152344 163.75 140.765625 164.140625 140.765625 164.617188 L 140.765625 172.859375 C 140.765625 173.335938 141.152344 173.722656 141.628906 173.722656 L 155.476562 173.722656 C 155.953125 173.722656 156.339844 173.335938 156.339844 172.859375 L 156.339844 164.617188 C 156.339844 164.140625 155.953125 163.75 155.476562 163.75 Z M 155.476562 163.75 " fill-opacity="1" fill-rule="nonzero"/><path fill="#000000" d="M 173.007812 158.164062 C 174.472656 158.164062 175.660156 156.972656 175.660156 155.511719 C 175.660156 154.042969 174.46875 152.851562 173.007812 152.851562 C 171.542969 152.851562 170.351562 154.042969 170.351562 155.511719 C 170.351562 156.972656 171.542969 158.164062 173.007812 158.164062 Z M 173.007812 158.164062 " fill-opacity="1" fill-rule="nonzero"/><path fill="#000000" d="M 161.257812 218.46875 C 161.257812 217.003906 160.070312 215.808594 158.609375 215.808594 C 157.144531 215.808594 155.953125 217.003906 155.953125 218.46875 C 155.953125 219.933594 157.144531 221.128906 158.609375 221.128906 C 160.070312 221.128906 161.257812 219.933594 161.257812 218.46875 Z M 161.257812 218.46875 " fill-opacity="1" fill-rule="nonzero"/><path fill="#000000" d="M 154.488281 189.433594 C 154.488281 190.898438 155.679688 192.09375 157.148438 192.09375 C 158.609375 192.09375 159.796875 190.898438 159.796875 189.433594 C 159.796875 187.964844 158.609375 186.773438 157.148438 186.773438 C 155.679688 186.773438 154.488281 187.964844 154.488281 189.433594 Z M 154.488281 189.433594 " fill-opacity="1" fill-rule="nonzero"/><path fill="#000000" d="M 203.878906 163.207031 C 205.339844 163.207031 206.527344 162.015625 206.527344 160.554688 C 206.527344 159.085938 205.339844 157.894531 203.878906 157.894531 C 202.410156 157.894531 201.21875 159.085938 201.21875 160.554688 C 201.21875 162.015625 202.414062 163.207031 203.878906 163.207031 Z M 203.878906 163.207031 " fill-opacity="1" fill-rule="nonzero"/><g clip-path="url(#b69fc1fa4f)"><path fill="#000000" d="M 237.464844 175.296875 L 237.464844 164.789062 C 237.464844 162.46875 235.578125 160.578125 233.257812 160.578125 L 219.515625 160.578125 C 217.195312 160.578125 215.308594 162.46875 215.308594 164.789062 L 215.308594 175.285156 C 214.070312 175.632812 213.160156 176.753906 213.160156 178.101562 L 213.160156 180.394531 C 213.160156 180.875 213.546875 181.261719 214.023438 181.261719 L 225.515625 181.261719 L 225.515625 191.78125 C 225.515625 193.796875 224.730469 195.6875 223.359375 197.109375 L 223.359375 184.449219 C 223.359375 183.972656 222.972656 183.585938 222.492188 183.585938 C 222.015625 183.585938 221.628906 183.972656 221.628906 184.449219 L 221.628906 198.476562 L 218.65625 200.226562 L 218.65625 194.085938 C 218.65625 193.605469 218.269531 193.21875 217.792969 193.21875 C 217.3125 193.21875 216.925781 193.605469 216.925781 194.085938 L 216.925781 201.246094 L 209.019531 205.90625 C 209.59375 203.785156 209.886719 201.878906 209.886719 200.21875 C 209.886719 198.019531 208.988281 195.519531 207.234375 192.796875 C 207.417969 191.628906 207.835938 187.726562 206.238281 183.722656 C 204.441406 179.207031 195.046875 168 188.335938 167.070312 L 188.335938 165.015625 L 194.792969 165.015625 C 195.273438 165.015625 195.660156 164.628906 195.660156 164.148438 C 195.660156 163.671875 195.273438 163.285156 194.792969 163.285156 L 188.335938 163.285156 L 188.335938 161.421875 L 199.175781 161.421875 C 199.652344 161.421875 200.042969 161.03125 200.042969 160.554688 C 200.042969 160.074219 199.652344 159.6875 199.175781 159.6875 L 188.335938 159.6875 L 188.335938 150.21875 L 199.832031 150.21875 C 200.3125 150.21875 200.699219 149.828125 200.699219 149.351562 L 200.699219 147.054688 C 200.699219 145.710938 199.785156 144.585938 198.550781 144.238281 L 198.550781 133.746094 C 198.550781 131.421875 196.660156 129.535156 194.335938 129.535156 L 180.601562 129.535156 C 178.277344 129.535156 176.386719 131.421875 176.386719 133.746094 L 176.386719 144.238281 C 175.152344 144.585938 174.238281 145.710938 174.238281 147.054688 L 174.238281 149.351562 C 174.238281 149.828125 174.625 150.21875 175.105469 150.21875 L 186.601562 150.21875 L 186.601562 154.644531 L 177.683594 154.644531 C 177.207031 154.644531 176.820312 155.03125 176.820312 155.511719 C 176.820312 155.988281 177.207031 156.378906 177.683594 156.378906 L 186.601562 156.378906 L 186.601562 167.058594 C 179.816406 167.863281 169.515625 177.65625 166.898438 184.640625 C 165.132812 189.363281 166.300781 192.871094 166.777344 193.972656 C 165.347656 197.179688 164.152344 200.777344 164.152344 203.816406 C 164.152344 204.179688 164.207031 204.605469 164.296875 205.066406 L 158.011719 201.296875 L 158.011719 194.085938 C 158.011719 193.605469 157.625 193.21875 157.148438 193.21875 C 156.667969 193.21875 156.28125 193.605469 156.28125 194.085938 L 156.28125 200.257812 L 153.3125 198.476562 L 153.3125 184.449219 C 153.3125 183.972656 152.921875 183.585938 152.445312 183.585938 C 151.96875 183.585938 151.578125 183.972656 151.578125 184.449219 L 151.578125 197.113281 C 150.210938 195.699219 149.421875 193.804688 149.421875 191.78125 L 149.421875 181.261719 L 160.914062 181.261719 C 161.390625 181.261719 161.777344 180.875 161.777344 180.394531 L 161.777344 178.101562 C 161.777344 176.753906 160.867188 175.632812 159.632812 175.285156 L 159.632812 164.789062 C 159.632812 162.46875 157.746094 160.578125 155.421875 160.578125 L 141.683594 160.578125 C 139.363281 160.578125 137.472656 162.46875 137.472656 164.789062 L 137.472656 175.285156 C 136.238281 175.632812 135.328125 176.753906 135.328125 178.101562 L 135.328125 180.394531 C 135.328125 180.875 135.714844 181.261719 136.191406 181.261719 L 147.691406 181.261719 L 147.691406 191.78125 C 147.691406 194.984375 149.292969 197.9375 151.945312 199.664062 C 152.050781 199.738281 152.164062 199.808594 152.269531 199.871094 L 157.746094 203.15625 L 157.746094 213.574219 C 157.746094 214.050781 158.132812 214.4375 158.609375 214.4375 C 159.089844 214.4375 159.476562 214.050781 159.476562 213.574219 L 159.476562 204.195312 L 161.335938 205.3125 L 161.335938 210.757812 C 161.335938 211.238281 161.726562 211.625 162.203125 211.625 C 162.679688 211.625 163.070312 211.238281 163.070312 210.757812 L 163.070312 206.351562 L 165.035156 207.53125 C 166.476562 211.355469 169.339844 216.210938 170.859375 218.605469 C 168.589844 219.394531 163.417969 221.640625 159.816406 226.683594 C 158.5625 228.445312 157.132812 232.121094 155.570312 237.605469 C 155.4375 238.066406 155.703125 238.542969 156.164062 238.675781 C 156.242188 238.699219 156.324219 238.707031 156.402344 238.707031 C 156.78125 238.707031 157.125 238.460938 157.234375 238.078125 C 158.722656 232.859375 160.101562 229.265625 161.226562 227.6875 C 164.496094 223.113281 169.316406 221 171.394531 220.261719 C 171.515625 221.847656 171.921875 224.730469 173.277344 226.765625 C 175.242188 229.703125 179.011719 230.679688 179.171875 230.71875 C 179.242188 230.738281 179.3125 230.746094 179.382812 230.746094 C 179.769531 230.746094 180.121094 230.484375 180.222656 230.089844 C 180.339844 229.628906 180.058594 229.15625 179.59375 229.039062 C 179.5625 229.027344 176.304688 228.175781 174.71875 225.804688 C 173.957031 224.660156 173.550781 223.140625 173.328125 221.832031 C 175.351562 223.980469 177.808594 225.957031 177.949219 226.066406 C 178.109375 226.195312 178.300781 226.257812 178.488281 226.257812 C 178.742188 226.257812 178.996094 226.144531 179.164062 225.929688 C 179.464844 225.558594 179.402344 225.011719 179.03125 224.714844 C 178.984375 224.679688 174.640625 221.1875 172.929688 218.632812 C 172.925781 218.625 172.925781 218.617188 172.921875 218.609375 C 171.765625 216.878906 168.113281 210.960938 166.550781 206.640625 C 166.542969 206.628906 166.535156 206.621094 166.527344 206.605469 C 165.996094 205.121094 165.882812 204.269531 165.882812 203.816406 C 165.882812 196.972656 172.851562 186.433594 172.921875 186.324219 C 173.1875 185.929688 173.082031 185.390625 172.683594 185.125 C 172.285156 184.859375 171.746094 184.964844 171.484375 185.363281 C 171.339844 185.582031 169.613281 188.191406 167.875 191.65625 C 167.589844 190.199219 167.5 187.96875 168.519531 185.246094 C 171.238281 177.996094 181.863281 168.734375 187.46875 168.734375 C 193.203125 168.734375 202.886719 179.984375 204.632812 184.363281 C 205.550781 186.671875 205.714844 188.980469 205.675781 190.601562 C 203.640625 187.992188 201.621094 186.183594 201.515625 186.089844 C 201.160156 185.773438 200.613281 185.804688 200.292969 186.164062 C 199.976562 186.519531 200.007812 187.066406 200.367188 187.386719 C 200.394531 187.410156 203.34375 190.054688 205.605469 193.457031 C 207.296875 196.007812 208.15625 198.285156 208.15625 200.222656 C 208.15625 202.234375 207.671875 204.6875 206.71875 207.507812 C 205.164062 212.089844 202.742188 216.457031 201.152344 218.570312 C 201.144531 218.578125 201.144531 218.585938 201.140625 218.59375 C 198.464844 222.140625 192.367188 228.230469 189.886719 229.058594 C 189.328125 229.246094 188.640625 229.300781 187.875 229.230469 C 187.988281 228.980469 188.113281 228.722656 188.246094 228.460938 C 188.734375 227.492188 189.234375 226.488281 189.234375 225.390625 C 189.234375 224.003906 188.761719 222.195312 188.484375 221.25 C 191.375 219.265625 204.5 209.855469 204.5 202.914062 C 204.5 190.882812 193.796875 187.671875 187.46875 187.671875 C 181.144531 187.671875 170.4375 190.882812 170.4375 202.914062 C 170.4375 210.121094 184.589844 219.992188 186.734375 221.445312 C 186.953125 222.152344 187.503906 224.070312 187.503906 225.390625 C 187.503906 226.078125 187.113281 226.859375 186.699219 227.683594 C 186.5 228.078125 186.304688 228.484375 186.132812 228.898438 C 185.0625 228.59375 184.273438 228.207031 184.261719 228.203125 C 183.835938 227.988281 183.316406 228.164062 183.101562 228.589844 C 182.886719 229.019531 183.0625 229.539062 183.488281 229.753906 C 183.535156 229.773438 184.457031 230.230469 185.714844 230.582031 C 185.714844 230.648438 185.703125 230.714844 185.703125 230.78125 C 185.703125 232.070312 186.128906 235.023438 186.484375 237.265625 C 186.515625 237.476562 186.539062 237.691406 186.566406 237.9375 C 186.617188 238.378906 186.984375 238.6875 187.417969 238.6875 C 187.453125 238.6875 187.488281 238.6875 187.519531 238.683594 C 187.996094 238.628906 188.335938 238.183594 188.28125 237.707031 C 188.257812 237.476562 188.230469 237.242188 188.195312 237.003906 C 187.726562 234.054688 187.464844 231.921875 187.441406 230.929688 C 187.796875 230.972656 188.144531 231 188.472656 231 C 189.1875 231 189.84375 230.898438 190.4375 230.699219 C 192.832031 229.898438 197.234375 225.722656 200.273438 222.328125 C 199.652344 224.578125 198.558594 227.441406 196.738281 229.265625 C 193.46875 232.535156 190.191406 232.605469 190.164062 232.605469 C 189.683594 232.605469 189.296875 232.996094 189.296875 233.472656 C 189.296875 233.953125 189.683594 234.339844 190.164062 234.339844 C 190.324219 234.339844 194.160156 234.296875 197.960938 230.488281 C 200.863281 227.585938 202.082031 222.660156 202.519531 220.316406 C 204.890625 221.351562 210.816406 224.125 212.824219 226.800781 C 214.832031 229.480469 216.371094 235.550781 216.941406 238.035156 C 217.03125 238.433594 217.386719 238.707031 217.78125 238.707031 C 217.847656 238.707031 217.914062 238.699219 217.976562 238.683594 C 218.441406 238.578125 218.734375 238.113281 218.628906 237.648438 C 217.890625 234.425781 216.335938 228.601562 214.207031 225.761719 C 211.925781 222.71875 205.648438 219.785156 203.171875 218.710938 C 204.765625 216.347656 206.832031 212.449219 208.25 208.367188 L 211.871094 206.234375 L 211.871094 210.753906 C 211.871094 211.234375 212.257812 211.621094 212.734375 211.621094 C 213.214844 211.621094 213.601562 211.234375 213.601562 210.753906 L 213.601562 205.214844 L 215.460938 204.117188 L 215.460938 213.574219 C 215.460938 214.050781 215.851562 214.4375 216.328125 214.4375 C 216.804688 214.4375 217.195312 214.050781 217.195312 213.574219 L 217.195312 203.101562 L 222.671875 199.871094 C 222.777344 199.808594 222.890625 199.738281 222.964844 199.683594 C 225.644531 197.9375 227.246094 194.984375 227.246094 191.78125 L 227.246094 181.261719 L 238.746094 181.261719 C 239.222656 181.261719 239.613281 180.875 239.613281 180.394531 L 239.613281 178.101562 C 239.613281 176.773438 238.71875 175.660156 237.464844 175.296875 Z M 178.117188 133.746094 C 178.117188 132.378906 179.230469 131.269531 180.601562 131.269531 L 194.335938 131.269531 C 195.707031 131.269531 196.820312 132.378906 196.820312 133.746094 L 196.820312 144.117188 L 178.117188 144.117188 Z M 175.96875 147.054688 C 175.96875 146.390625 176.511719 145.851562 177.253906 145.851562 L 197.6875 145.851562 C 197.699219 145.851562 197.710938 145.84375 197.726562 145.84375 C 197.738281 145.84375 197.75 145.851562 197.765625 145.851562 C 198.429688 145.851562 198.96875 146.390625 198.96875 147.054688 L 198.96875 148.484375 L 175.96875 148.484375 Z M 139.207031 164.789062 C 139.207031 163.425781 140.316406 162.3125 141.683594 162.3125 L 155.421875 162.3125 C 156.789062 162.3125 157.898438 163.425781 157.898438 164.789062 L 157.898438 175.164062 L 139.207031 175.164062 Z M 137.058594 178.101562 C 137.058594 177.4375 137.597656 176.894531 138.339844 176.894531 L 158.765625 176.894531 C 158.78125 176.894531 158.789062 176.886719 158.804688 176.886719 C 158.816406 176.886719 158.828125 176.894531 158.84375 176.894531 C 159.507812 176.894531 160.046875 177.4375 160.046875 178.101562 L 160.046875 179.53125 L 137.058594 179.53125 Z M 181.136719 198.234375 C 181.679688 199.566406 182.738281 200.621094 184.070312 201.167969 C 182.738281 201.714844 181.679688 202.773438 181.136719 204.101562 C 180.589844 202.769531 179.535156 201.714844 178.203125 201.167969 C 179.535156 200.625 180.589844 199.566406 181.136719 198.234375 Z M 217.039062 164.789062 C 217.039062 163.425781 218.148438 162.3125 219.515625 162.3125 L 233.257812 162.3125 C 234.621094 162.3125 235.734375 163.425781 235.734375 164.789062 L 235.734375 175.164062 L 217.039062 175.164062 Z M 237.878906 179.53125 L 214.890625 179.53125 L 214.890625 178.101562 C 214.890625 177.4375 215.429688 176.894531 216.09375 176.894531 L 236.597656 176.894531 C 236.613281 176.894531 236.625 176.886719 236.636719 176.886719 C 236.648438 176.886719 236.664062 176.894531 236.675781 176.894531 C 237.339844 176.894531 237.878906 177.4375 237.878906 178.101562 Z M 237.878906 179.53125 " fill-opacity="1" fill-rule="nonzero"/></g><path fill="#000000" d="M 233.308594 163.75 L 219.464844 163.75 C 218.984375 163.75 218.597656 164.140625 218.597656 164.617188 L 218.597656 172.859375 C 218.597656 173.335938 218.984375 173.722656 219.464844 173.722656 L 233.308594 173.722656 C 233.785156 173.722656 234.175781 173.335938 234.175781 172.859375 L 234.175781 164.617188 C 234.175781 164.140625 233.785156 163.75 233.308594 163.75 Z M 233.308594 163.75 " fill-opacity="1" fill-rule="nonzero"/><path fill="#000000" d="M 213.679688 218.46875 C 213.679688 219.933594 214.867188 221.128906 216.328125 221.128906 C 217.792969 221.128906 218.988281 219.933594 218.988281 218.46875 C 218.988281 217.003906 217.792969 215.808594 216.328125 215.808594 C 214.867188 215.808594 213.679688 217 213.679688 218.46875 Z M 213.679688 218.46875 " fill-opacity="1" fill-rule="nonzero"/><path fill="#000000" d="M 220.449219 189.433594 C 220.449219 189.785156 220.382812 190.125 220.246094 190.449219 C 220.113281 190.777344 219.921875 191.066406 219.671875 191.3125 C 219.421875 191.5625 219.132812 191.753906 218.808594 191.890625 C 218.484375 192.027344 218.144531 192.09375 217.792969 192.09375 C 217.4375 192.09375 217.101562 192.027344 216.773438 191.890625 C 216.449219 191.753906 216.160156 191.5625 215.914062 191.3125 C 215.664062 191.066406 215.472656 190.777344 215.335938 190.449219 C 215.199219 190.125 215.132812 189.785156 215.132812 189.433594 C 215.132812 189.082031 215.199219 188.742188 215.335938 188.414062 C 215.472656 188.089844 215.664062 187.800781 215.914062 187.550781 C 216.160156 187.300781 216.449219 187.109375 216.773438 186.976562 C 217.101562 186.839844 217.4375 186.773438 217.792969 186.773438 C 218.144531 186.773438 218.484375 186.839844 218.808594 186.976562 C 219.132812 187.109375 219.421875 187.300781 219.671875 187.550781 C 219.921875 187.800781 220.113281 188.089844 220.246094 188.414062 C 220.382812 188.742188 220.449219 189.082031 220.449219 189.433594 Z M 220.449219 189.433594 " fill-opacity="1" fill-rule="nonzero"/><g fill="#ffffff" fill-opacity="1"><g transform="translate(89.692982, 207.232823)"><g><path d="M -7.671875 -7.265625 L -10.09375 -10.84375 L -4.890625 -11.53125 C -3.960938 -11.65625 -3.140625 -11.453125 -2.421875 -10.921875 C -1.703125 -10.390625 -1.285156 -9.695312 -1.171875 -8.84375 L -0.59375 -4.5 C -0.476562 -3.644531 -0.703125 -2.867188 -1.265625 -2.171875 C -1.835938 -1.484375 -2.578125 -1.078125 -3.484375 -0.953125 L -21 1.375 C -21.925781 1.5 -22.742188 1.296875 -23.453125 0.765625 C -24.171875 0.242188 -24.585938 -0.441406 -24.703125 -1.296875 L -25.28125 -5.640625 C -25.394531 -6.492188 -25.175781 -7.269531 -24.625 -7.96875 C -24.070312 -8.664062 -23.332031 -9.078125 -22.40625 -9.203125 L -20.328125 -9.46875 L -17.890625 -5.90625 L -21.546875 -5.421875 L -21.15625 -2.484375 L -4.328125 -4.71875 L -4.71875 -7.65625 Z M -7.671875 -7.265625 "/></g></g></g><g fill="#ffffff" fill-opacity="1"><g transform="translate(87.735406, 187.697302)"><g><path d="M -24.171875 -3.0625 L -23.90625 -6.890625 L -13.71875 -6.203125 L -15.09375 -9.28125 L -23.703125 -9.859375 L -23.4375 -13.703125 L -2.484375 -12.28125 C -1.554688 -12.207031 -0.789062 -11.835938 -0.1875 -11.171875 C 0.40625 -10.515625 0.671875 -9.757812 0.609375 -8.90625 L 0.3125 -4.53125 C 0.25 -3.675781 -0.125 -2.960938 -0.8125 -2.390625 C -1.507812 -1.828125 -2.3125 -1.578125 -3.21875 -1.640625 L -4.4375 -1.71875 L -6.09375 -5.671875 L -3.296875 -5.484375 L -3.09375 -8.453125 L -10.78125 -8.984375 L -7.765625 -1.9375 Z M -24.171875 -3.0625 "/></g></g></g><g fill="#ffffff" fill-opacity="1"><g transform="translate(89.755152, 167.829575)"><g><path d="M 0.375 -1.359375 L -23.0625 -7.859375 L -21.046875 -15.09375 C -20.816406 -15.925781 -20.3125 -16.554688 -19.53125 -16.984375 C -18.75 -17.410156 -17.90625 -17.5 -17 -17.25 L -11.9375 -15.859375 C -11.195312 -15.648438 -10.613281 -15.335938 -10.1875 -14.921875 C -9.832031 -14.628906 -9.582031 -14.257812 -9.4375 -13.8125 L -9.078125 -15.0625 L 0.03125 -12.53125 C 0.925781 -12.28125 1.597656 -11.769531 2.046875 -11 C 2.503906 -10.226562 2.617188 -9.425781 2.390625 -8.59375 Z M -12.96875 -12.140625 L -17.703125 -13.4375 L -18.5 -10.578125 L -12.25 -8.859375 Z M -8.78125 -10.96875 L -8.109375 -7.703125 L -2.125 -6.046875 L -1.328125 -8.90625 Z M -8.78125 -10.96875 "/></g></g></g><g fill="#ffffff" fill-opacity="1"><g transform="translate(95.803713, 148.737658)"><g><path d="M -13.6875 -18.8125 L -16.109375 -13.953125 L -10.25 -11.015625 L -10.328125 -17.125 L -6.46875 -15.1875 L -6.390625 -9.078125 L -0.921875 -6.328125 L 1.5 -11.1875 L 4.78125 -9.546875 L 0.625 -1.25 L -18.140625 -10.65625 C -18.984375 -11.082031 -19.550781 -11.710938 -19.84375 -12.546875 C -20.144531 -13.390625 -20.101562 -14.195312 -19.71875 -14.96875 L -16.96875 -20.453125 Z M -13.6875 -18.8125 "/></g></g></g><g fill="#ffffff" fill-opacity="1"><g transform="translate(104.492627, 132.641712)"><g><path d="M 6.21875 -8.03125 L -3.4375 -10.40625 L -3.609375 -9.453125 L 3.21875 -4.15625 L 0.859375 -1.109375 L -18.375 -16 L -13.765625 -21.9375 C -13.242188 -22.625 -12.539062 -23.015625 -11.65625 -23.109375 C -10.769531 -23.210938 -9.957031 -22.976562 -9.21875 -22.40625 L -2.203125 -16.984375 L -2.75 -14.15625 L 8.78125 -11.34375 Z M -6.453125 -15.390625 L -11.296875 -19.140625 L -13.109375 -16.796875 L -7.015625 -12.09375 Z M -6.453125 -15.390625 "/></g></g></g><g fill="#ffffff" fill-opacity="1"><g transform="translate(117.538004, 117.211264)"><g/></g></g><g fill="#ffffff" fill-opacity="1"><g transform="translate(127.623879, 108.362445)"><g><path d="M -10.15625 -18.4375 C -10.675781 -19.238281 -10.847656 -20.066406 -10.671875 -20.921875 C -10.492188 -21.785156 -10.039062 -22.453125 -9.3125 -22.921875 L -5.640625 -25.296875 C -4.910156 -25.753906 -4.113281 -25.882812 -3.25 -25.6875 C -2.382812 -25.488281 -1.695312 -24.992188 -1.1875 -24.203125 L -0.625 -23.3125 L -2.828125 -19.609375 L -4.234375 -21.8125 L -6.734375 -20.21875 L -3.234375 -14.765625 L 0.609375 -21.40625 L 8.359375 -9.328125 C 8.847656 -8.554688 9.007812 -7.726562 8.84375 -6.84375 C 8.675781 -5.957031 8.226562 -5.285156 7.5 -4.828125 L 3.828125 -2.453125 C 3.097656 -1.984375 2.300781 -1.851562 1.4375 -2.0625 C 0.582031 -2.269531 -0.0976562 -2.769531 -0.609375 -3.5625 L -1.828125 -5.46875 L 0.359375 -9.1875 L 2.4375 -5.9375 L 4.9375 -7.53125 L 0.78125 -14.015625 L -3.0625 -7.390625 Z M -10.15625 -18.4375 "/></g></g></g><g fill="#ffffff" fill-opacity="1"><g transform="translate(144.854449, 98.152968)"><g><path d="M 2.328125 -23.125 L -2.71875 -21.140625 L -0.3125 -15.0625 L 3.703125 -19.640625 L 5.28125 -15.625 L 1.265625 -11.046875 L 3.53125 -5.359375 L 8.578125 -7.34375 L 9.921875 -3.921875 L 1.3125 -0.515625 L -6.421875 -20.046875 C -6.765625 -20.910156 -6.769531 -21.753906 -6.4375 -22.578125 C -6.101562 -23.410156 -5.53125 -23.984375 -4.71875 -24.296875 L 0.96875 -26.546875 Z M 2.328125 -23.125 "/></g></g></g><g fill="#ffffff" fill-opacity="1"><g transform="translate(162.072455, 91.947245)"><g><path d="M 6.859375 -8.046875 L 10.296875 -10.65625 L 11.265625 -5.484375 C 11.429688 -4.566406 11.269531 -3.734375 10.78125 -2.984375 C 10.289062 -2.242188 9.617188 -1.796875 8.765625 -1.640625 L 4.46875 -0.828125 C 3.613281 -0.671875 2.820312 -0.851562 2.09375 -1.375 C 1.375 -1.90625 0.929688 -2.617188 0.765625 -3.515625 L -2.46875 -20.890625 C -2.644531 -21.816406 -2.488281 -22.648438 -2 -23.390625 C -1.507812 -24.140625 -0.835938 -24.59375 0.015625 -24.75 L 4.3125 -25.5625 C 5.164062 -25.71875 5.953125 -25.535156 6.671875 -25.015625 C 7.398438 -24.503906 7.851562 -23.785156 8.03125 -22.859375 L 8.40625 -20.796875 L 4.96875 -18.1875 L 4.296875 -21.8125 L 1.375 -21.28125 L 4.484375 -4.578125 L 7.40625 -5.109375 Z M 6.859375 -8.046875 "/></g></g></g><g fill="#ffffff" fill-opacity="1"><g transform="translate(181.480638, 88.976407)"><g><path d="M 12.46875 -24.125 L 12.125 -3.125 C 12.113281 -2.1875 11.789062 -1.398438 11.15625 -0.765625 C 10.53125 -0.140625 9.785156 0.160156 8.921875 0.140625 L 4.546875 0.078125 C 3.679688 0.0546875 2.945312 -0.28125 2.34375 -0.9375 C 1.738281 -1.601562 1.441406 -2.394531 1.453125 -3.3125 L 1.796875 -24.3125 L 5.640625 -24.25 L 5.3125 -3.59375 L 8.28125 -3.53125 L 8.609375 -24.1875 Z M 12.46875 -24.125 "/></g></g></g><g fill="#ffffff" fill-opacity="1"><g transform="translate(201.426477, 89.961091)"><g><path d="M 9.921875 2.203125 L 7.953125 -7.546875 L 7 -7.296875 L 5.125 1.140625 L 1.375 0.3125 L 6.65625 -23.4375 L 13.984375 -21.8125 C 14.828125 -21.625 15.484375 -21.148438 15.953125 -20.390625 C 16.421875 -19.628906 16.554688 -18.789062 16.359375 -17.875 L 14.4375 -9.21875 L 11.640625 -8.515625 L 14 3.109375 Z M 11.171875 -12.40625 L 12.5 -18.375 L 9.609375 -19.015625 L 7.9375 -11.5 Z M 11.171875 -12.40625 "/></g></g></g><g fill="#ffffff" fill-opacity="1"><g transform="translate(220.946119, 95.184577)"><g><path d="M 1.296875 0.53125 L 10.53125 -21.984375 L 14.09375 -20.53125 L 4.859375 1.984375 Z M 1.296875 0.53125 "/></g></g></g><g fill="#ffffff" fill-opacity="1"><g transform="translate(233.262921, 100.580286)"><g><path d="M 3.71875 2.3125 L 14.609375 -15.234375 L 11.34375 -17.265625 L 13.28125 -20.390625 L 23.09375 -14.296875 L 21.15625 -11.171875 L 17.875 -13.21875 L 6.984375 4.328125 Z M 3.71875 2.3125 "/></g></g></g><g fill="#ffffff" fill-opacity="1"><g transform="translate(249.190695, 111.175758)"><g><path d="M 17.671875 -16.765625 L 20.46875 -14.140625 L 13.484375 -6.6875 L 16.734375 -5.8125 L 22.640625 -12.109375 L 25.453125 -9.46875 L 11.09375 5.84375 C 10.445312 6.519531 9.675781 6.878906 8.78125 6.921875 C 7.894531 6.972656 7.132812 6.703125 6.5 6.109375 L 3.3125 3.109375 C 2.6875 2.515625 2.375 1.769531 2.375 0.875 C 2.375 -0.0078125 2.6875 -0.785156 3.3125 -1.453125 L 4.140625 -2.34375 L 8.25 -1.125 L 6.34375 0.921875 L 8.515625 2.953125 L 13.78125 -2.671875 L 6.421875 -4.78125 Z M 17.671875 -16.765625 "/></g></g></g><g fill="#ffffff" fill-opacity="1"><g transform="translate(263.320262, 125.62014)"><g/></g></g><g fill="#ffffff" fill-opacity="1"><g transform="translate(271.297755, 136.145122)"><g><path d="M 5.96875 8.40625 C 5.632812 8.394531 5.3125 8.332031 5 8.21875 C 4.144531 7.9375 3.53125 7.40625 3.15625 6.625 L 1.953125 4.109375 C 1.578125 3.328125 1.550781 2.515625 1.875 1.671875 C 2.207031 0.835938 2.785156 0.222656 3.609375 -0.171875 L 22.578125 -9.1875 L 24.21875 -5.71875 L 5.5625 3.15625 L 6.84375 5.84375 L 25.5 -3.03125 L 27.15625 0.453125 L 8.5 9.328125 L 9.78125 12 L 28.4375 3.125 L 30.09375 6.609375 L 11.125 15.625 C 10.28125 16.03125 9.4375 16.09375 8.59375 15.8125 C 7.75 15.53125 7.140625 15 6.765625 14.21875 L 5.5625 11.6875 C 5.195312 10.914062 5.171875 10.097656 5.484375 9.234375 C 5.617188 8.929688 5.78125 8.65625 5.96875 8.40625 Z M 5.96875 8.40625 "/></g></g></g><g fill="#ffffff" fill-opacity="1"><g transform="translate(281.570447, 160.83858)"><g><path d="M 0.34375 1.359375 L 23.96875 -4.46875 L 24.890625 -0.734375 L 1.265625 5.09375 Z M 0.34375 1.359375 "/></g></g></g><g fill="#ffffff" fill-opacity="1"><g transform="translate(284.506627, 173.931623)"><g><path d="M 0.375 5.234375 L 0.09375 1.40625 L 24.359375 -0.328125 L 24.640625 3.5 L 22.859375 3.625 C 23.171875 3.738281 23.460938 3.90625 23.734375 4.125 C 24.410156 4.707031 24.78125 5.429688 24.84375 6.296875 L 24.90625 7.171875 C 24.96875 8.023438 24.695312 8.78125 24.09375 9.4375 C 23.5 10.101562 22.738281 10.472656 21.8125 10.546875 L 0.859375 12.046875 L 0.59375 8.203125 L 21.203125 6.71875 L 20.984375 3.75 Z M 0.375 5.234375 "/></g></g></g><g fill="#ffffff" fill-opacity="1"><g transform="translate(285.278634, 193.886827)"><g><path d="M -0.59375 4.515625 C -0.476562 3.648438 -0.0625 2.953125 0.65625 2.421875 C 1.382812 1.898438 2.203125 1.703125 3.109375 1.828125 L 20.640625 4.125 C 21.566406 4.25 22.304688 4.65625 22.859375 5.34375 C 23.421875 6.039062 23.644531 6.820312 23.53125 7.6875 L 22.96875 12.015625 C 22.851562 12.867188 22.4375 13.5625 21.71875 14.09375 C 21 14.625 20.175781 14.828125 19.25 14.703125 L 16.578125 14.359375 L 15.0625 10.28125 L 19.40625 10.84375 L 19.796875 7.890625 L 2.953125 5.6875 L 2.5625 8.640625 L 8.578125 9.421875 L 7.96875 7.75 L 12.25 8.3125 L 14.3125 14.0625 L -1.578125 11.96875 C -1.578125 11.96875 -1.25 9.484375 -0.59375 4.515625 Z M -0.59375 4.515625 "/></g></g></g><g fill="#000000" fill-opacity="1"><g transform="translate(157.038159, 299.902315)"><g><path d="M 16.828125 -21.328125 L 12.5 -0.765625 C 12.300781 0.148438 11.832031 0.859375 11.09375 1.359375 C 10.363281 1.859375 9.578125 2.019531 8.734375 1.84375 L 4.453125 0.9375 C 3.609375 0.757812 2.953125 0.289062 2.484375 -0.46875 C 2.015625 -1.226562 1.875 -2.054688 2.0625 -2.953125 L 6.390625 -23.515625 L 10.15625 -22.734375 L 5.890625 -2.515625 L 8.796875 -1.90625 L 13.0625 -22.125 Z M 16.828125 -21.328125 "/></g></g></g><g fill="#000000" fill-opacity="1"><g transform="translate(175.487776, 303.211355)"><g><path d="M 1.40625 0.109375 L 3.28125 -24.140625 L 7.109375 -23.84375 L 5.234375 0.40625 Z M 1.40625 0.109375 "/></g></g></g><g fill="#000000" fill-opacity="1"><g transform="translate(187.368537, 303.983194)"><g><path d="M 4.375 -0.21875 L 3.34375 -20.84375 L -0.5 -20.65625 L -0.671875 -24.328125 L 10.859375 -24.890625 L 11.03125 -21.21875 L 7.171875 -21.03125 L 8.203125 -0.40625 Z M 4.375 -0.21875 "/></g></g></g><g fill="#000000" fill-opacity="1"><g transform="translate(205.433985, 302.682179)"><g><path d="M -2.953125 -20.84375 C -3.148438 -21.78125 -3.007812 -22.617188 -2.53125 -23.359375 C -2.0625 -24.109375 -1.40625 -24.570312 -0.5625 -24.75 L 3.71875 -25.65625 C 4.5625 -25.832031 5.347656 -25.664062 6.078125 -25.15625 C 6.816406 -24.65625 7.285156 -23.945312 7.484375 -23.03125 L 7.703125 -22.015625 L 4.328125 -19.328125 L 3.78125 -21.90625 L 0.875 -21.296875 L 2.21875 -14.9375 L 8.171875 -19.78125 L 11.125 -5.734375 C 11.3125 -4.835938 11.171875 -4.007812 10.703125 -3.25 C 10.234375 -2.488281 9.578125 -2.019531 8.734375 -1.84375 L 4.453125 -0.9375 C 3.609375 -0.757812 2.816406 -0.921875 2.078125 -1.421875 C 1.347656 -1.921875 0.882812 -2.628906 0.6875 -3.546875 L 0.21875 -5.765625 L 3.59375 -8.453125 L 4.390625 -4.671875 L 7.296875 -5.28125 L 5.703125 -12.8125 L -0.25 -8 Z M -2.953125 -20.84375 "/></g></g></g></svg>